<svg width="36" height="29" viewBox="0 0 36 29" fill="none" xmlns="http://www.w3.org/2000/svg">
<g filter="url(#filter0_ddi_9_907)">
<rect x="2" y="2" width="32" height="25" rx="2.5" fill="#F5F5F1"/>
<rect x="2" y="2" width="32" height="25" rx="2.5" fill="url(#paint0_linear_9_907)"/>
<rect x="1.5" y="1.5" width="33" height="26" rx="3" stroke="#003C74"/>
</g>
<path fill-rule="evenodd" clip-rule="evenodd" d="M13 10H14V19H13V12H11V11H13V10ZM21 10H20V13H19V15H18V17H17V19H18V17H19V15H20V13H21V10ZM23 13H22V15H23V17H22V19H23V17H25V19H26V17H25V15H26V13H25V15H23V13Z" fill="#0000FF"/>
<defs>
<filter id="filter0_ddi_9_907" x="0" y="-1" width="36" height="30" filterUnits="userSpaceOnUse" color-interpolation-filters="sRGB">
<feFlood flood-opacity="0" result="BackgroundImageFix"/>
<feColorMatrix in="SourceAlpha" type="matrix" values="0 0 0 0 0 0 0 0 0 0 0 0 0 0 0 0 0 0 127 0" result="hardAlpha"/>
<feOffset dx="-1" dy="-1"/>
<feColorMatrix type="matrix" values="0 0 0 0 0 0 0 0 0 0 0 0 0 0 0 0 0 0 0.05 0"/>
<feBlend mode="normal" in2="BackgroundImageFix" result="effect1_dropShadow_9_907"/>
<feColorMatrix in="SourceAlpha" type="matrix" values="0 0 0 0 0 0 0 0 0 0 0 0 0 0 0 0 0 0 127 0" result="hardAlpha"/>
<feOffset dx="1" dy="1"/>
<feColorMatrix type="matrix" values="0 0 0 0 1 0 0 0 0 1 0 0 0 0 1 0 0 0 0.75 0"/>
<feBlend mode="normal" in2="effect1_dropShadow_9_907" result="effect2_dropShadow_9_907"/>
<feBlend mode="normal" in="SourceGraphic" in2="effect2_dropShadow_9_907" result="shape"/>
<feColorMatrix in="SourceAlpha" type="matrix" values="0 0 0 0 0 0 0 0 0 0 0 0 0 0 0 0 0 0 127 0" result="hardAlpha"/>
<feOffset dx="-1" dy="-2"/>
<feGaussianBlur stdDeviation="1"/>
<feComposite in2="hardAlpha" operator="arithmetic" k2="-1" k3="1"/>
<feColorMatrix type="matrix" values="0 0 0 0 0 0 0 0 0 0 0 0 0 0 0 0 0 0 0.2 0"/>
<feBlend mode="normal" in2="shape" result="effect3_innerShadow_9_907"/>
</filter>
<linearGradient id="paint0_linear_9_907" x1="18" y1="2" x2="18" y2="27" gradientUnits="userSpaceOnUse">
<stop stop-color="white"/>
<stop offset="1" stop-color="#F0F0EA"/>
</linearGradient>
</defs>
</svg>
