<svg width="36" height="29" viewBox="0 0 36 29" fill="none" xmlns="http://www.w3.org/2000/svg">
<g filter="url(#filter0_ddi_9_863)">
<rect x="2" y="2" width="32" height="25" rx="2.5" fill="#F5F5F1"/>
<rect x="2" y="2" width="32" height="25" rx="2.5" fill="url(#paint0_linear_9_863)"/>
<rect x="1.5" y="1.5" width="33" height="26" rx="3" stroke="#003C74"/>
</g>
<path fill-rule="evenodd" clip-rule="evenodd" d="M16 10H18V11H16V10ZM16 12H15V11H16V12ZM18 12V13H16V12H18ZM18 12H19V11H18V12ZM21 16V17H19V16H21ZM19 18H18V17H19V18ZM21 18V19H19V18H21ZM21 18H22V17H21V18ZM22 11H21V12H20V13H19V14H18V15H17V16H16V17H15V18H16V17H17V16H18V15H19V14H20V13H21V12H22V11Z" fill="#0000FF"/>
<defs>
<filter id="filter0_ddi_9_863" x="0" y="-1" width="36" height="30" filterUnits="userSpaceOnUse" color-interpolation-filters="sRGB">
<feFlood flood-opacity="0" result="BackgroundImageFix"/>
<feColorMatrix in="SourceAlpha" type="matrix" values="0 0 0 0 0 0 0 0 0 0 0 0 0 0 0 0 0 0 127 0" result="hardAlpha"/>
<feOffset dx="-1" dy="-1"/>
<feColorMatrix type="matrix" values="0 0 0 0 0 0 0 0 0 0 0 0 0 0 0 0 0 0 0.05 0"/>
<feBlend mode="normal" in2="BackgroundImageFix" result="effect1_dropShadow_9_863"/>
<feColorMatrix in="SourceAlpha" type="matrix" values="0 0 0 0 0 0 0 0 0 0 0 0 0 0 0 0 0 0 127 0" result="hardAlpha"/>
<feOffset dx="1" dy="1"/>
<feColorMatrix type="matrix" values="0 0 0 0 1 0 0 0 0 1 0 0 0 0 1 0 0 0 0.75 0"/>
<feBlend mode="normal" in2="effect1_dropShadow_9_863" result="effect2_dropShadow_9_863"/>
<feBlend mode="normal" in="SourceGraphic" in2="effect2_dropShadow_9_863" result="shape"/>
<feColorMatrix in="SourceAlpha" type="matrix" values="0 0 0 0 0 0 0 0 0 0 0 0 0 0 0 0 0 0 127 0" result="hardAlpha"/>
<feOffset dx="-1" dy="-2"/>
<feGaussianBlur stdDeviation="1"/>
<feComposite in2="hardAlpha" operator="arithmetic" k2="-1" k3="1"/>
<feColorMatrix type="matrix" values="0 0 0 0 0 0 0 0 0 0 0 0 0 0 0 0 0 0 0.2 0"/>
<feBlend mode="normal" in2="shape" result="effect3_innerShadow_9_863"/>
</filter>
<linearGradient id="paint0_linear_9_863" x1="18" y1="2" x2="18" y2="27" gradientUnits="userSpaceOnUse">
<stop stop-color="white"/>
<stop offset="1" stop-color="#F0F0EA"/>
</linearGradient>
</defs>
</svg>
