<svg width="36" height="29" viewBox="0 0 36 29" fill="none" xmlns="http://www.w3.org/2000/svg">
<g filter="url(#filter0_ddi_9_466)">
<rect x="2" y="2" width="32" height="25" rx="2.5" fill="#F5F5F1"/>
<rect x="2" y="2" width="32" height="25" rx="2.5" fill="url(#paint0_linear_9_466)"/>
<rect x="1.5" y="1.5" width="33" height="26" rx="3" stroke="#003C74"/>
</g>
<path fill-rule="evenodd" clip-rule="evenodd" d="M25 11H24V18H25V19H26V18H25V14H26V13H25V11ZM11 13H13V14H11V13ZM11 15H10V14H11V15ZM12 16H11V15H12V16ZM13 17H12V16H13V17ZM13 18V17H14V18H13ZM11 18H13V19H11V18ZM11 18H10V17H11V18ZM13 14H14V15H13V14ZM16 14H15V18H16V19H19V21H20V13H19H16V14ZM16 14V18H19V14H16ZM22 13H21V19H22V14H23V13H22Z" fill="#0000FF"/>
<defs>
<filter id="filter0_ddi_9_466" x="0" y="-1" width="36" height="30" filterUnits="userSpaceOnUse" color-interpolation-filters="sRGB">
<feFlood flood-opacity="0" result="BackgroundImageFix"/>
<feColorMatrix in="SourceAlpha" type="matrix" values="0 0 0 0 0 0 0 0 0 0 0 0 0 0 0 0 0 0 127 0" result="hardAlpha"/>
<feOffset dx="-1" dy="-1"/>
<feColorMatrix type="matrix" values="0 0 0 0 0 0 0 0 0 0 0 0 0 0 0 0 0 0 0.05 0"/>
<feBlend mode="normal" in2="BackgroundImageFix" result="effect1_dropShadow_9_466"/>
<feColorMatrix in="SourceAlpha" type="matrix" values="0 0 0 0 0 0 0 0 0 0 0 0 0 0 0 0 0 0 127 0" result="hardAlpha"/>
<feOffset dx="1" dy="1"/>
<feColorMatrix type="matrix" values="0 0 0 0 1 0 0 0 0 1 0 0 0 0 1 0 0 0 0.75 0"/>
<feBlend mode="normal" in2="effect1_dropShadow_9_466" result="effect2_dropShadow_9_466"/>
<feBlend mode="normal" in="SourceGraphic" in2="effect2_dropShadow_9_466" result="shape"/>
<feColorMatrix in="SourceAlpha" type="matrix" values="0 0 0 0 0 0 0 0 0 0 0 0 0 0 0 0 0 0 127 0" result="hardAlpha"/>
<feOffset dx="-1" dy="-2"/>
<feGaussianBlur stdDeviation="1"/>
<feComposite in2="hardAlpha" operator="arithmetic" k2="-1" k3="1"/>
<feColorMatrix type="matrix" values="0 0 0 0 0 0 0 0 0 0 0 0 0 0 0 0 0 0 0.2 0"/>
<feBlend mode="normal" in2="shape" result="effect3_innerShadow_9_466"/>
</filter>
<linearGradient id="paint0_linear_9_466" x1="18" y1="2" x2="18" y2="27" gradientUnits="userSpaceOnUse">
<stop stop-color="white"/>
<stop offset="1" stop-color="#F0F0EA"/>
</linearGradient>
</defs>
</svg>
