<svg width="62" height="29" viewBox="0 0 62 29" fill="none" xmlns="http://www.w3.org/2000/svg">
<g filter="url(#filter0_ddi_5_208)">
<rect x="2" y="2" width="58" height="25" rx="2.5" fill="#F5F5F1"/>
<rect x="2" y="2" width="58" height="25" rx="2.5" fill="url(#paint0_linear_5_208)"/>
<rect x="1.5" y="1.5" width="59" height="26" rx="3" stroke="#003C74"/>
</g>
<path fill-rule="evenodd" clip-rule="evenodd" d="M26 10H30V11H26V10ZM26 18H25V11H26V18ZM30 18V19H26V18H30ZM30 18V17H31V18H30ZM30 11H31V12H30V11ZM32 10H33H37V11H33V14H36V15H33V18H37V19H33H32V10Z" fill="#FF0000"/>
<defs>
<filter id="filter0_ddi_5_208" x="0" y="-1" width="62" height="30" filterUnits="userSpaceOnUse" color-interpolation-filters="sRGB">
<feFlood flood-opacity="0" result="BackgroundImageFix"/>
<feColorMatrix in="SourceAlpha" type="matrix" values="0 0 0 0 0 0 0 0 0 0 0 0 0 0 0 0 0 0 127 0" result="hardAlpha"/>
<feOffset dx="-1" dy="-1"/>
<feColorMatrix type="matrix" values="0 0 0 0 0 0 0 0 0 0 0 0 0 0 0 0 0 0 0.05 0"/>
<feBlend mode="normal" in2="BackgroundImageFix" result="effect1_dropShadow_5_208"/>
<feColorMatrix in="SourceAlpha" type="matrix" values="0 0 0 0 0 0 0 0 0 0 0 0 0 0 0 0 0 0 127 0" result="hardAlpha"/>
<feOffset dx="1" dy="1"/>
<feColorMatrix type="matrix" values="0 0 0 0 1 0 0 0 0 1 0 0 0 0 1 0 0 0 0.75 0"/>
<feBlend mode="normal" in2="effect1_dropShadow_5_208" result="effect2_dropShadow_5_208"/>
<feBlend mode="normal" in="SourceGraphic" in2="effect2_dropShadow_5_208" result="shape"/>
<feColorMatrix in="SourceAlpha" type="matrix" values="0 0 0 0 0 0 0 0 0 0 0 0 0 0 0 0 0 0 127 0" result="hardAlpha"/>
<feOffset dx="-1" dy="-2"/>
<feGaussianBlur stdDeviation="1"/>
<feComposite in2="hardAlpha" operator="arithmetic" k2="-1" k3="1"/>
<feColorMatrix type="matrix" values="0 0 0 0 0 0 0 0 0 0 0 0 0 0 0 0 0 0 0.2 0"/>
<feBlend mode="normal" in2="shape" result="effect3_innerShadow_5_208"/>
</filter>
<linearGradient id="paint0_linear_5_208" x1="31" y1="2" x2="31" y2="27" gradientUnits="userSpaceOnUse">
<stop stop-color="white"/>
<stop offset="1" stop-color="#F0F0EA"/>
</linearGradient>
</defs>
</svg>
