<svg width="21" height="22" viewBox="0 0 21 22" fill="none" xmlns="http://www.w3.org/2000/svg">
<g filter="url(#filter0_ii_9_1433)">
<rect x="1" y="1" width="19" height="19.6552" rx="2" fill="#E55022"/>
</g>
<rect x="0.5" y="0.5" width="20" height="20.6552" rx="2.5" stroke="white"/>
<g filter="url(#filter1_ii_9_1433)">
<rect x="1" y="1" width="19" height="19.6552" rx="2" fill="#2266F5" fill-opacity="0.01"/>
</g>
<path d="M7 6.13792H8V7.13792H9V8.13792H10V9.13792H11V8.13792H12V7.13792H13V6.13792H14V5.13792H15V6.13792H16V7.13792H15V8.13792H14V9.13792H13V10.1379H12V11.1379H13V12.1379H14V13.1379H15V14.1379H16V15.1379H15V16.1379H14V15.1379H13V14.1379H12V13.1379H11V12.1379H10V13.1379H9V14.1379H8V15.1379H7V16.1379H6V15.1379H5V14.1379H6V13.1379H7V12.1379H8V11.1379H9V10.1379H8V9.13792H7V8.13792H6V7.13792H5V6.13792H6V5.13792H7V6.13792Z" fill="white"/>
<path d="M6 16.1379H5V15.1379H6V16.1379ZM16 16.1379H15V15.1379H16V16.1379ZM6 6.13792H5V5.13792H6V6.13792ZM16 6.13792H15V5.13792H16V6.13792Z" fill="white" fill-opacity="0.5"/>
<defs>
<filter id="filter0_ii_9_1433" x="-2" y="-3" width="27" height="26.6552" filterUnits="userSpaceOnUse" color-interpolation-filters="sRGB">
<feFlood flood-opacity="0" result="BackgroundImageFix"/>
<feBlend mode="normal" in="SourceGraphic" in2="BackgroundImageFix" result="shape"/>
<feColorMatrix in="SourceAlpha" type="matrix" values="0 0 0 0 0 0 0 0 0 0 0 0 0 0 0 0 0 0 127 0" result="hardAlpha"/>
<feOffset dx="4" dy="2"/>
<feGaussianBlur stdDeviation="4"/>
<feComposite in2="hardAlpha" operator="arithmetic" k2="-1" k3="1"/>
<feColorMatrix type="matrix" values="0 0 0 0 1 0 0 0 0 1 0 0 0 0 1 0 0 0 0.6 0"/>
<feBlend mode="normal" in2="shape" result="effect1_innerShadow_9_1433"/>
<feColorMatrix in="SourceAlpha" type="matrix" values="0 0 0 0 0 0 0 0 0 0 0 0 0 0 0 0 0 0 127 0" result="hardAlpha"/>
<feOffset dx="-2" dy="-3"/>
<feGaussianBlur stdDeviation="2.5"/>
<feComposite in2="hardAlpha" operator="arithmetic" k2="-1" k3="1"/>
<feColorMatrix type="matrix" values="0 0 0 0 0.666667 0 0 0 0 0.137255 0 0 0 0 0 0 0 0 1 0"/>
<feBlend mode="normal" in2="effect1_innerShadow_9_1433" result="effect2_innerShadow_9_1433"/>
</filter>
<filter id="filter1_ii_9_1433" x="1" y="1" width="19" height="19.6552" filterUnits="userSpaceOnUse" color-interpolation-filters="sRGB">
<feFlood flood-opacity="0" result="BackgroundImageFix"/>
<feBlend mode="normal" in="SourceGraphic" in2="BackgroundImageFix" result="shape"/>
<feColorMatrix in="SourceAlpha" type="matrix" values="0 0 0 0 0 0 0 0 0 0 0 0 0 0 0 0 0 0 127 0" result="hardAlpha"/>
<feOffset dx="-1" dy="-1"/>
<feComposite in2="hardAlpha" operator="arithmetic" k2="-1" k3="1"/>
<feColorMatrix type="matrix" values="0 0 0 0 0.682353 0 0 0 0 0.141176 0 0 0 0 0 0 0 0 1 0"/>
<feBlend mode="normal" in2="shape" result="effect1_innerShadow_9_1433"/>
<feColorMatrix in="SourceAlpha" type="matrix" values="0 0 0 0 0 0 0 0 0 0 0 0 0 0 0 0 0 0 127 0" result="hardAlpha"/>
<feOffset dx="1" dy="1"/>
<feComposite in2="hardAlpha" operator="arithmetic" k2="-1" k3="1"/>
<feColorMatrix type="matrix" values="0 0 0 0 0.898039 0 0 0 0 0.313726 0 0 0 0 0.133333 0 0 0 0.5 0"/>
<feBlend mode="normal" in2="effect1_innerShadow_9_1433" result="effect2_innerShadow_9_1433"/>
</filter>
</defs>
</svg>
